  <svg
    xmlns="http://www.w3.org/2000/svg"
    width="512"
    height="512"
    viewBox="-1 -1.5 25 30"
    fill="none"
  >
    <rect width="40" height="40" x="-4" y="-2" fill="white" />
    <path
      d="M1.22729 5.67619C1.22729 4.23586 2.39492 3.06824 3.83525 3.06824C5.27558 3.06824 6.4432 4.23586 6.4432 5.67619V24.3921C6.4432 25.8324 5.27558 27 3.83525 27C2.39492 27 1.22729 25.8324 1.22729 24.3921V5.67619Z"
      fill="black"
    />
    <path
      d="M17.1818 2.60795C17.1818 1.16762 18.3494 0 19.7897 0C21.23 0 22.3977 1.16762 22.3977 2.60795V21.3239C22.3977 22.7642 21.23 23.9318 19.7897 23.9318C18.3494 23.9318 17.1818 22.7642 17.1818 21.3239V2.60795Z"
      fill="black"
    />
    <path
      d="M1.8441 7.06639C0.825632 6.04792 0.825632 4.39666 1.8441 3.37819C2.86257 2.35972 4.51384 2.35972 5.5323 3.37819L21.7829 19.6287C22.8013 20.6472 22.8013 22.2985 21.7829 23.317C20.7644 24.3354 19.1131 24.3354 18.0947 23.317L1.8441 7.06639Z"
      fill="#FA782F"
    />
  </svg>